<svg
  width="74"
  height="19"
  viewBox="0 0 74 19"
  fill="none"
  xmlns="http://www.w3.org/2000/svg"
>
  <g clip-path="url(#clip0_3311_4448)">
    <path
      d="M7.20509 1.80691C7.20509 0.80898 6.39863 0 5.40382 0C4.409 0 3.60254 0.80898 3.60254 1.80691V17.1931C3.60254 18.191 4.409 19 5.40382 19C6.39863 19 7.20509 18.191 7.20509 17.1931V1.80691Z"
      fill="white"
    />
    <path
      d="M13.4388 3.61076C14.4344 3.61076 15.2416 2.80247 15.2416 1.80538C15.2416 0.808297 14.4344 0 13.4388 0L1.80281 0C0.807155 0 1.43051e-05 0.808297 1.43051e-05 1.80538C1.43051e-05 2.80247 0.807155 3.61076 1.80281 3.61076L13.4388 3.61076Z"
      fill="white"
    />
    <path
      d="M15.5309 8.16467C14.4622 8.16648 13.418 8.48575 12.5303 9.08216C11.6426 9.67856 10.9512 10.5253 10.5435 11.5154C10.1358 12.5055 10.03 13.5946 10.2396 14.6449C10.4492 15.6952 10.9648 16.6597 11.7211 17.4164C12.4774 18.1732 13.4405 18.6883 14.4888 18.8966C15.5371 19.1049 16.6235 18.997 17.6106 18.5867C18.5978 18.1764 19.4415 17.482 20.035 16.5913C20.6286 15.7005 20.9453 14.6535 20.9453 13.5823C20.9453 12.8701 20.8052 12.1649 20.533 11.507C20.2608 10.8491 19.8618 10.2514 19.3589 9.74822C18.856 9.24503 18.2591 8.84615 17.6022 8.57443C16.9453 8.30271 16.2415 8.16346 15.5309 8.16467ZM15.5309 15.3892C15.1754 15.3844 14.8292 15.2744 14.536 15.0729C14.2428 14.8715 14.0155 14.5876 13.8828 14.2571C13.75 13.9265 13.7178 13.564 13.7901 13.2151C13.8624 12.8662 14.036 12.5465 14.289 12.2963C14.5421 12.046 14.8634 11.8763 15.2124 11.8086C15.5614 11.7408 15.9226 11.778 16.2506 11.9154C16.5786 12.0529 16.8588 12.2845 17.0558 12.5811C17.2528 12.8776 17.358 13.226 17.358 13.5823C17.358 13.8217 17.3106 14.0587 17.2185 14.2795C17.1264 14.5003 16.9914 14.7006 16.8214 14.8687C16.6514 15.0368 16.4498 15.1694 16.2282 15.2588C16.0067 15.3481 15.7696 15.3925 15.5309 15.3892Z"
      fill="white"
    />
    <path
      d="M63.1863 0.0488358V17.1961C63.2054 17.6621 63.4035 18.1026 63.7392 18.4256C64.075 18.7485 64.5222 18.9288 64.9876 18.9288C65.4529 18.9288 65.9001 18.7485 66.2359 18.4256C66.5716 18.1026 66.7697 17.6621 66.7888 17.1961V0.0488358H63.1863Z"
      fill="white"
    />
    <path
      d="M27.0633 0.0366287H30.6659V17.1961C30.6659 17.4334 30.6193 17.6684 30.5287 17.8876C30.4381 18.1068 30.3053 18.306 30.1379 18.4738C29.9705 18.6416 29.7717 18.7747 29.553 18.8655C29.3343 18.9563 29.0998 19.0031 28.8631 19.0031C28.385 19.0031 27.9264 18.8127 27.5883 18.4738C27.2502 18.135 27.0603 17.6754 27.0603 17.1961V0.0366287H27.0633Z"
      fill="white"
    />
    <path
      d="M72.5961 8.99487C73.0371 8.48561 73.3781 7.8974 73.6011 7.26121C73.8884 6.44509 73.9766 5.57187 73.8583 4.71459C73.74 3.8573 73.4186 3.04087 72.921 2.33357C72.4234 1.62627 71.7641 1.04866 70.9981 0.649052C70.2322 0.249444 69.382 0.0394512 68.5185 0.0366352H61.2708C60.7985 0.032138 60.3428 0.211125 59.9993 0.536053C59.6558 0.860981 59.4512 1.3066 59.4284 1.77945C59.4182 2.02129 59.4565 2.26272 59.5412 2.48941C59.6259 2.7161 59.7551 2.92343 59.9213 3.09908C60.0875 3.27474 60.2872 3.41514 60.5085 3.51195C60.7299 3.60876 60.9684 3.66001 61.2099 3.66266H68.4576C68.9345 3.65676 69.3948 3.83798 69.7401 4.16761C70.0855 4.49724 70.2886 4.94915 70.3061 5.42684C70.3061 5.46651 70.3061 5.50619 70.3061 5.54587C70.2794 6.01708 70.0723 6.45978 69.7279 6.78164C69.3835 7.10351 68.9284 7.27968 68.4576 7.27342H63.1406C62.6688 7.26889 62.2135 7.44746 61.8701 7.77174C61.5267 8.09602 61.3217 8.54088 61.2982 9.01318C61.2892 9.2558 61.329 9.49775 61.4154 9.72458C61.5018 9.95141 61.6329 10.1585 61.8009 10.3334C61.9688 10.5083 62.1703 10.6475 62.3931 10.7427C62.616 10.8378 62.8557 10.887 63.0979 10.8872H68.6068C68.8407 10.8823 69.0733 10.9244 69.2907 11.011C69.5082 11.0975 69.7061 11.2268 69.873 11.3912C70.0399 11.5556 70.1722 11.7517 70.2623 11.9682C70.3523 12.1846 70.3983 12.4169 70.3974 12.6514V17.1962C70.397 17.4331 70.4433 17.6679 70.5336 17.8869C70.6239 18.106 70.7565 18.305 70.9237 18.4726C71.0909 18.6402 71.2894 18.773 71.508 18.8635C71.7265 18.954 71.9607 19.0004 72.1972 19C72.4338 19.0004 72.6681 18.954 72.8869 18.8636C73.1056 18.7731 73.3043 18.6403 73.4718 18.4727C73.6392 18.3052 73.7721 18.1062 73.8627 17.8872C73.9533 17.6681 74 17.4333 74 17.1962V12.6392C74.0017 11.2915 73.501 9.99176 72.5961 8.99487Z"
      fill="white"
    />
    <path
      d="M37.4568 3.66265C37.0859 2.60322 36.396 1.68536 35.4823 1.03583C34.5686 0.386299 33.4762 0.0371583 32.356 0.0366287H25.0656C24.5875 0.0366287 24.1289 0.226999 23.7908 0.56586C23.4528 0.904721 23.2628 1.36431 23.2628 1.84354C23.2628 2.32276 23.4528 2.78235 23.7908 3.12121C24.1289 3.46007 24.5875 3.65044 25.0656 3.65044H32.356C32.5988 3.64044 32.8411 3.67972 33.0683 3.76594C33.2955 3.85216 33.5031 3.98353 33.6784 4.15216C33.8537 4.32079 33.9932 4.52321 34.0885 4.74724C34.1837 4.97126 34.2329 5.21229 34.2329 5.45583C34.2329 5.69936 34.1837 5.94039 34.0885 6.16442C33.9932 6.38845 33.8537 6.59086 33.6784 6.75949C33.5031 6.92812 33.2955 7.05949 33.0683 7.14571C32.8411 7.23193 32.5988 7.27121 32.356 7.26121H26.9506C26.4725 7.26121 26.014 7.45158 25.6759 7.79044C25.3378 8.1293 25.1478 8.58889 25.1478 9.06811C25.1478 9.54734 25.3378 10.0069 25.6759 10.3458C26.014 10.6847 26.4725 10.875 26.9506 10.875H32.356C33.2193 10.8738 34.0698 10.6655 34.8364 10.2676C35.6031 9.86969 36.2636 9.29373 36.7629 8.5878C37.2621 7.88186 37.5856 7.06645 37.7064 6.20965C37.8271 5.35286 37.7415 4.47955 37.4568 3.66265Z"
      fill="white"
    />
    <path
      d="M55.7955 0.119046C55.3179 0.119855 54.8601 0.310582 54.5227 0.649355C54.1852 0.988128 53.9957 1.44726 53.9957 1.92595V13.5823C54.0057 13.8257 53.9665 14.0685 53.8805 14.2963C53.7945 14.524 53.6634 14.732 53.4951 14.9077C53.3269 15.0834 53.1249 15.2233 52.9014 15.3188C52.6779 15.4143 52.4374 15.4635 52.1944 15.4635C51.9515 15.4635 51.711 15.4143 51.4875 15.3188C51.2639 15.2233 51.062 15.0834 50.8937 14.9077C50.7255 14.732 50.5944 14.524 50.5084 14.2963C50.4224 14.0685 50.3832 13.8257 50.3932 13.5823V5.17961V4.88354C50.374 4.41757 50.1759 3.97705 49.8402 3.65413C49.5045 3.3312 49.0572 3.15088 48.5919 3.15088C48.1266 3.15088 47.6793 3.3312 47.3436 3.65413C47.0079 3.97705 46.8097 4.41757 46.7906 4.88354V5.18877V13.5915C46.8006 13.8348 46.7614 14.0777 46.6754 14.3054C46.5894 14.5332 46.4583 14.7412 46.29 14.9169C46.1218 15.0926 45.9198 15.2324 45.6963 15.3279C45.4728 15.4234 45.2323 15.4727 44.9893 15.4727C44.7464 15.4727 44.5059 15.4234 44.2824 15.3279C44.0588 15.2324 43.8569 15.0926 43.6886 14.9169C43.5204 14.7412 43.3893 14.5332 43.3033 14.3054C43.2173 14.0777 43.1781 13.8348 43.1881 13.5915V1.93511C43.198 1.69178 43.1588 1.44894 43.0728 1.22117C42.9868 0.993406 42.8557 0.785421 42.6875 0.609712C42.5192 0.434003 42.3173 0.294196 42.0938 0.198691C41.8702 0.103186 41.6298 0.0539551 41.3868 0.0539551C41.1438 0.0539551 40.9033 0.103186 40.6798 0.198691C40.4563 0.294196 40.2543 0.434003 40.0861 0.609712C39.9178 0.785421 39.7868 0.993406 39.7007 1.22117C39.6147 1.44894 39.5755 1.69178 39.5855 1.93511V13.5915C39.5862 14.7121 39.9333 15.8051 40.5789 16.72C41.2245 17.6349 42.1371 18.3269 43.1911 18.7009C44.1051 19.0249 45.0892 19.0963 46.0403 18.9079C46.9913 18.7194 47.8743 18.2778 48.5965 17.6296C49.3746 18.3289 50.3384 18.7872 51.3711 18.9488C52.4038 19.1105 53.4611 18.9686 54.415 18.5403C55.3688 18.112 56.1784 17.4157 56.7455 16.5358C57.3126 15.6558 57.6131 14.6299 57.6104 13.5823V1.92595C57.6105 1.68764 57.5634 1.45167 57.4721 1.23165C57.3807 1.01162 57.2468 0.811889 57.0781 0.643941C56.9094 0.475994 56.7092 0.343153 56.4891 0.253069C56.269 0.162984 56.0332 0.117436 55.7955 0.119046Z"
      fill="white"
    />
  </g>
  <defs>
    <clipPath id="clip0_3311_4448">
      <rect width="74" height="19" fill="white" />
    </clipPath>
  </defs>
</svg>
